<mxfile host="app.diagrams.net" agent="Mozilla/5.0 (Windows NT 10.0; Win64; x64; rv:139.0) Gecko/20100101 Firefox/139.0" version="27.1.4">
  <diagram name="Страница — 1" id="CyH_XoFSKrtEkVDr-6b8">
    <mxGraphModel dx="1196" dy="479" grid="1" gridSize="10" guides="1" tooltips="1" connect="1" arrows="1" fold="1" page="1" pageScale="1" pageWidth="827" pageHeight="1169" math="0" shadow="0">
      <root>
        <mxCell id="0" />
        <mxCell id="1" parent="0" />
        <mxCell id="UXM6QCLqZ47b9K15x_lJ-4" style="rounded=0;orthogonalLoop=1;jettySize=auto;html=1;shape=link;" edge="1" parent="1" source="UXM6QCLqZ47b9K15x_lJ-2" target="UXM6QCLqZ47b9K15x_lJ-3">
          <mxGeometry relative="1" as="geometry" />
        </mxCell>
        <mxCell id="UXM6QCLqZ47b9K15x_lJ-2" value="Device_a" style="ellipse;whiteSpace=wrap;html=1;aspect=fixed;" vertex="1" parent="1">
          <mxGeometry x="200" y="170" width="80" height="80" as="geometry" />
        </mxCell>
        <mxCell id="UXM6QCLqZ47b9K15x_lJ-3" value="Device_z" style="ellipse;whiteSpace=wrap;html=1;aspect=fixed;" vertex="1" parent="1">
          <mxGeometry x="510" y="170" width="80" height="80" as="geometry" />
        </mxCell>
        <mxCell id="UXM6QCLqZ47b9K15x_lJ-5" value="Interface_a" style="text;html=1;align=center;verticalAlign=middle;whiteSpace=wrap;rounded=0;" vertex="1" parent="1">
          <mxGeometry x="270" y="210" width="80" height="30" as="geometry" />
        </mxCell>
        <mxCell id="UXM6QCLqZ47b9K15x_lJ-6" value="Interface_z" style="text;html=1;align=center;verticalAlign=middle;whiteSpace=wrap;rounded=0;" vertex="1" parent="1">
          <mxGeometry x="430" y="210" width="80" height="30" as="geometry" />
        </mxCell>
      </root>
    </mxGraphModel>
  </diagram>
</mxfile>
